<svg xmlns="http://www.w3.org/2000/svg" viewBox="0 0 648.56 419.25"><defs><style>.cls-1,.cls-14{fill:none;stroke-miterlimit:10;}.cls-1{stroke:#ebebeb;}.cls-2{fill:#a6a6a6;}.cls-3{fill:#ebebeb;}.cls-4{fill:#a198fd;}.cls-15,.cls-5{fill:#263238;}.cls-6{fill:#37474f;}.cls-7{fill:#4a41a7;}.cls-8{fill:#dbdbdb;}.cls-9{fill:#fff;}.cls-10{fill:#455a64;}.cls-11{fill:#c7c7c7;}.cls-12{fill:#ffc727;}.cls-13,.cls-18,.cls-19,.cls-20,.cls-21,.cls-22,.cls-23,.cls-24,.cls-25,.cls-26,.cls-27,.cls-28{fill:#7062fb;}.cls-14{stroke:#4a41a7;stroke-width:0.5px;}.cls-15{font-size:15.23px;font-family:Raleway-SemiBold, Raleway;font-weight:700;}.cls-16{letter-spacing:-0.03em;}.cls-17{letter-spacing:-0.07em;}.cls-18{opacity:0.9;}.cls-19{opacity:0.8;}.cls-20{opacity:0.7;}.cls-21{opacity:0.6;}.cls-22{opacity:0.5;}.cls-23{opacity:0.4;}.cls-24{opacity:0.3;}.cls-25,.cls-29{opacity:0.2;}.cls-26,.cls-31{opacity:0.1;}.cls-27{opacity:0.05;}.cls-28{opacity:0.01;}.cls-30{fill:#f7a9a0;}.cls-32{fill:#ff9abb;}</style></defs><title>update-page-logo</title><g id="Background_Complete" data-name="Background Complete"><rect class="cls-1" x="72.32" y="0.5" width="125.64" height="85.64"/><circle class="cls-2" cx="79.2" cy="5.58" r="2.52"/><circle class="cls-3" cx="89.49" cy="5.58" r="2.52"/><circle class="cls-4" cx="99.79" cy="5.58" r="2.52"/><line class="cls-1" x1="72.32" y1="10.52" x2="197.96" y2="10.52"/><polyline class="cls-1" points="44.88 316.21 44.88 190.55 18.15 154.06 18.15 85.73"/><circle class="cls-1" cx="18.15" cy="83.39" r="2.38"/><polyline class="cls-1" points="37.99 316.21 37.99 194.95 11.26 158.47 11.26 110.72"/><circle class="cls-1" cx="11.26" cy="108.39" r="2.38"/><line class="cls-1" x1="51.51" y1="316.21" x2="51.51" y2="149.8"/><circle class="cls-1" cx="51.51" cy="147.42" r="2.38"/><polyline class="cls-1" points="57.9 316.21 57.9 231.63 76.04 197.4 76.04 136.04"/><circle class="cls-1" cx="76.04" cy="133.67" r="2.38"/><polyline class="cls-1" points="64.25 316.21 64.25 235.29 85.64 197.45 85.64 157.03"/><circle class="cls-1" cx="85.64" cy="154.66" r="2.38"/><polyline class="cls-1" points="607.29 316.21 607.29 250.55 634.02 214.06 634.02 175.73"/><circle class="cls-1" cx="634.02" cy="173.39" r="2.38"/><polyline class="cls-1" points="614.18 316.21 614.18 254.95 640.91 218.47 640.91 200.72"/><circle class="cls-1" cx="640.91" cy="198.39" r="2.38"/><line class="cls-1" x1="600.66" y1="316.21" x2="600.66" y2="209.8"/><circle class="cls-1" cx="600.66" cy="207.42" r="2.38"/><polyline class="cls-1" points="594.27 316.21 594.27 261.63 576.13 227.4 576.13 166.04"/><circle class="cls-1" cx="576.13" cy="163.67" r="2.38"/><polyline class="cls-1" points="587.92 316.21 587.92 265.29 566.53 227.45 566.53 187.03"/><circle class="cls-1" cx="566.53" cy="184.66" r="2.38"/><path class="cls-3" d="M67.5,125.61a3.15,3.15,0,0,1,3.3,0l.85.48.88.44a3.14,3.14,0,0,1,1.84,2.73l.13,4.06,13.23-.41-.12-4.06A3.15,3.15,0,0,1,89.26,126a18.34,18.34,0,0,0,1.68-1,3.15,3.15,0,0,1,3.29-.21l3.57,1.92L104.06,115l-3.57-1.92a3.15,3.15,0,0,1-1.64-2.85,18.39,18.39,0,0,0-.06-2,3.15,3.15,0,0,1,1.46-3l3.45-2.14-7-11.25-3.47,2.15A3.14,3.14,0,0,1,90,94l-.85-.48-.87-.44a3.15,3.15,0,0,1-1.85-2.74l-.12-4.07L73,86.73l.13,4.05a3.15,3.15,0,0,1-1.66,2.86,18.44,18.44,0,0,0-1.68,1,3.14,3.14,0,0,1-3.29.21L63,93,56.7,104.65l3.57,1.92a3.14,3.14,0,0,1,1.64,2.86,18.47,18.47,0,0,0,.06,2,3.15,3.15,0,0,1-1.46,3l-3.45,2.13,7,11.25Zm3.32-20.9a10.85,10.85,0,1,1,4.44,14.68A10.86,10.86,0,0,1,70.81,104.71Z" transform="translate(-50.72 -43)"/><path class="cls-3" d="M674.24,225.29a2.21,2.21,0,0,1,2-1.08l.68,0,.69,0a2.2,2.2,0,0,1,2,1.08l1.42,2.47,8-4.64-1.42-2.47a2.21,2.21,0,0,1,.08-2.31,12.83,12.83,0,0,0,.69-1.2,2.2,2.2,0,0,1,2-1.22h2.84v-9.28h-2.84a2.2,2.2,0,0,1-2-1.22,12.87,12.87,0,0,0-.69-1.2,2.2,2.2,0,0,1-.08-2.31l1.42-2.47-8-4.64-1.43,2.48a2.2,2.2,0,0,1-2,1.07l-.68,0-.68,0a2.21,2.21,0,0,1-2-1.08l-1.42-2.47-8,4.64,1.42,2.46a2.2,2.2,0,0,1-.08,2.31,12.88,12.88,0,0,0-.69,1.2,2.2,2.2,0,0,1-2,1.22h-2.84v9.28h2.84a2.2,2.2,0,0,1,2,1.22,12.89,12.89,0,0,0,.69,1.2,2.2,2.2,0,0,1,.08,2.31l-1.42,2.46,8,4.64Zm-4.87-14a7.6,7.6,0,1,1,7.6,7.59A7.6,7.6,0,0,1,669.36,211.29Z" transform="translate(-50.72 -43)"/><path class="cls-3" d="M107.38,137.31a2.21,2.21,0,0,1,1.08,2q0,.34,0,.68t0,.69a2.2,2.2,0,0,1-1.08,2l-2.47,1.42,4.64,8,2.47-1.42a2.2,2.2,0,0,1,2.31.08,12.84,12.84,0,0,0,1.2.69,2.2,2.2,0,0,1,1.22,2v2.84H126v-2.84a2.2,2.2,0,0,1,1.22-2,12.91,12.91,0,0,0,1.2-.69,2.2,2.2,0,0,1,2.31-.08l2.47,1.42,4.64-8-2.48-1.43a2.2,2.2,0,0,1-1.07-2q0-.34,0-.68t0-.68a2.21,2.21,0,0,1,1.08-2l2.47-1.42-4.64-8-2.46,1.42a2.2,2.2,0,0,1-2.31-.08,12.85,12.85,0,0,0-1.2-.69,2.2,2.2,0,0,1-1.22-2v-2.84h-9.28v2.84a2.2,2.2,0,0,1-1.22,2,12.85,12.85,0,0,0-1.2.69,2.2,2.2,0,0,1-2.31.08l-2.46-1.42-4.64,8Zm14-4.87a7.6,7.6,0,1,1-7.59,7.6A7.6,7.6,0,0,1,121.38,132.44Z" transform="translate(-50.72 -43)"/></g><g id="Plant"><path class="cls-5" d="M140.2,248.71c-3.8-3.72-8.71-8.22-14.51-6.61-5.46,1.51-7.55,7.47-8.53,12.44-1.26,6.4-2.24,12.87-3.26,19.32s-2,13-2.93,19.56q-.79,5.52-1.57,11l-.77,5.53c-.25,1.81-.55,3.61-.65,5.43,0,.58.88.66,1,.11.7-3.07,1-6.27,1.45-9.38s.91-6.27,1.37-9.41q1.37-9.34,2.79-18.68t2.9-18.67c.84-5.27,1.24-11.83,5.92-15.3a9,9,0,0,1,8.74-.82c3.08,1.17,5.53,3.38,7.94,5.56A.08.08,0,0,0,140.2,248.71Z" transform="translate(-50.72 -43)"/><path class="cls-4" d="M135,244.9s-7.76-2.79-11.6,2.87.75,20.08,36.1,28.21A99.83,99.83,0,0,0,151,244C143.42,227.5,129.91,233.76,135,244.9Z" transform="translate(-50.72 -43)"/><path class="cls-5" d="M157.47,273.63a27.76,27.76,0,0,0-1.78-2.87q-.89-1.37-1.79-2.72c-.45-.68-.92-1.35-1.38-2,0-.16,0-.33.07-.51l.12-.92c.09-.66.18-1.32.28-2s.21-1.32.33-2a10.45,10.45,0,0,1,.46-2.08c0-.1-.14-.15-.15,0a7.75,7.75,0,0,1-.32,1.17c-.08.3-.16.59-.24.89q-.26,1-.49,2c-.14.62-.26,1.25-.36,1.88-.05.3-.1.6-.14.91q-.94-1.35-1.94-2.66c-1.88-2.47-3.86-4.85-5.92-7.17,0,0,0,0,0-.06.18-3.71.09-7.39.92-11,0-.1-.13-.15-.15-.05A37.93,37.93,0,0,0,143.71,255q-1.1-1.24-2.24-2.45-2.58-2.78-5.27-5.46c-.07-.07-.19,0-.12.11,3,3.21,5.81,6.55,8.56,9.95a60.8,60.8,0,0,0-6.46.24c-2.4.18-4.78.48-7.16.81-.1,0-.07.17,0,.16a67.1,67.1,0,0,1,7.15-.64c2.31-.1,4.6,0,6.9,0q2.23,2.77,4.41,5.58h-.33c-.54,0-1.08,0-1.63,0-1.07,0-2.15.09-3.22.19a48.89,48.89,0,0,0-6.53,1,.08.08,0,0,0,0,.16c2.17-.25,4.35-.45,6.53-.53,1,0,2.08,0,3.13,0h1.63a2,2,0,0,0,.89-.08c1,1.23,1.9,2.47,2.84,3.71q1.13,1.48,2.22,3c.74,1,1.41,2.15,2.24,3.11C157.4,273.79,157.51,273.71,157.47,273.63Z" transform="translate(-50.72 -43)"/><path class="cls-5" d="M138.38,252.93a23.65,23.65,0,0,0-3.78-.18c-1.26,0-2.52,0-3.78.08a.08.08,0,1,0,0,.16c1.28-.09,2.56-.11,3.84-.09s2.48.14,3.71.1A0,0,0,0,0,138.38,252.93Z" transform="translate(-50.72 -43)"/><path class="cls-5" d="M149.48,255.78c.15-1.21.3-2.42.55-3.61a.08.08,0,1,0-.15,0c-.18,1.19-.41,2.37-.59,3.56q-.13.89-.24,1.79a8.28,8.28,0,0,0-.14,1.69.11.11,0,0,0,.21,0,10.38,10.38,0,0,0,.18-1.68Q149.37,256.64,149.48,255.78Z" transform="translate(-50.72 -43)"/><path class="cls-5" d="M147.15,242.41c-.31,1.18-.62,2.36-.83,3.56-.11.61-.2,1.22-.29,1.83a7.38,7.38,0,0,0-.12,1.79,0,0,0,0,0,.09,0,10.15,10.15,0,0,0,.28-1.7q.12-.88.27-1.76c.21-1.23.43-2.45.75-3.67C147.33,242.36,147.18,242.31,147.15,242.41Z" transform="translate(-50.72 -43)"/><path class="cls-5" d="M101.12,314.11q-.29-3.34-.65-6.67-.7-6.61-1.59-13.19c-.59-4.38-1.15-8.76-1.85-13.12a32.71,32.71,0,0,0-1.35-6,5.65,5.65,0,0,0-3.3-3.72c-4.16-1.44-7,2.88-8.64,5.93-.05.09.08.16.14.08,1-1.44,3.79-5.5,6.94-5.31,2.12.13,3.82,1.63,4.84,6.92,2.54,13.19,4.83,40,5.1,41.71.14.93.8.89.8-.11C101.56,318.48,101.31,316.29,101.12,314.11Z" transform="translate(-50.72 -43)"/><path class="cls-4" d="M84.85,275.73s3.63-12.84-4.4-6.42C67.07,280,66.6,303.24,66.6,303.24s23.78-13.81,26.74-22.92C97.74,266.75,84.85,275.73,84.85,275.73Z" transform="translate(-50.72 -43)"/><path class="cls-5" d="M89.35,282c-1.87.38-3.76.63-5.64.9l-2.68.38c-.6.08-1.21.14-1.82.22,1.77-2.44,3.56-4.87,5.26-7.36.07-.1-.08-.2-.16-.12a55.24,55.24,0,0,0-4,4.59l-1.05-3c-.4-1.15-.84-2.29-1.13-3.48,0-.1-.18-.05-.15,0,.32,1.18.55,2.38.87,3.56s.65,2.26,1.05,3.37c-.87,1.13-1.71,2.29-2.52,3.46-.41-1.16-.92-2.28-1.28-3.46a.08.08,0,0,0-.15,0c.43,1.3.66,2.66,1.06,4-.55.8-1.09,1.59-1.61,2.4-1,1.48-1.87,3-2.75,4.52a.35.35,0,0,0-.21.36c-1.5,2.6-2.93,5.24-4.34,7.9a.08.08,0,0,0,.14.08c1.41-2.63,3-5.19,4.62-7.7h0a3.61,3.61,0,0,1,.78-.15l.82-.18c.61-.13,1.22-.29,1.83-.44,1.21-.3,2.4-.58,3.62-.8.1,0,.05-.17,0-.15-1.44.27-2.88.44-4.34.61-.69.08-1.37.17-2.05.28h-.1q1.28-1.95,2.6-3.86c.86-1.25,1.75-2.49,2.64-3.73.82-.12,1.64-.33,2.46-.49l2.76-.54c1.84-.36,3.67-.78,5.53-1.08C89.5,282.17,89.45,282,89.35,282Z" transform="translate(-50.72 -43)"/><path class="cls-5" d="M75.06,283.3c-.11-.34-.21-.68-.32-1a20.37,20.37,0,0,1-.55-2.15c0-.1-.17-.05-.15,0,.16.72.32,1.45.49,2.17a14,14,0,0,0,.62,2.13.14.14,0,0,0,.28-.08C75.32,284,75.18,283.67,75.06,283.3Z" transform="translate(-50.72 -43)"/><path class="cls-5" d="M91.78,279.06c-1.08.16-2.18.24-3.27.33s-2.18.25-3.27.41c-.06,0-.06.1,0,.1,1.1-.08,2.18-.16,3.27-.3s2.17-.3,3.27-.38C91.89,279.22,91.88,279,91.78,279.06Z" transform="translate(-50.72 -43)"/><path class="cls-5" d="M118.62,297.85c-.42-9.45-1-18.89-2-28.3-.47-4.69-1-9.37-1.66-14a100.42,100.42,0,0,0-2.71-13.59,26.11,26.11,0,0,0-4.52-9.58,10.27,10.27,0,0,0-9.14-4c-4.14.51-7.47,3.12-10.35,5.95-3.23,3.18-6.19,6.64-9.19,10q-1.14,1.29-2.25,2.59c-.07.08,0,.19.12.11,2.93-3.36,6-6.63,9.15-9.75,2.94-2.89,6-6,10-7.23a10.34,10.34,0,0,1,5.83-.14,9.26,9.26,0,0,1,4,2.52c2.29,2.38,3.58,5.61,4.5,8.74,2.54,8.69,3.45,17.8,4.4,26.77s1.61,18.25,2.06,27.41.82,18.42,1.71,27.59c.11,1.13.26,2.26.4,3.39.1.76,1.28.76,1.21,0C119.48,316.84,119,307.35,118.62,297.85Z" transform="translate(-50.72 -43)"/><path class="cls-4" d="M87.74,235.33s5.4-10-1-13.19S59,242.76,52.81,277.6c0,0,34.47-15.25,46.18-30.45S97.42,228.6,87.74,235.33Z" transform="translate(-50.72 -43)"/><path class="cls-5" d="M92.81,243.45c-3.87,0-7.74-.29-11.61-.27.73-.83,1.45-1.67,2.18-2.49a36.35,36.35,0,0,0,3-3.52c.05-.08-.06-.19-.14-.13A28,28,0,0,0,83.34,240q-1.46,1.55-2.9,3.11c-1.48,1.6-2.93,3.23-4.38,4.86,0-.16,0-.32,0-.47,0-.68,0-1.36,0-2,0-1.31,0-2.63,0-3.94,0-2.66,0-5.34.2-8,0-.1-.15-.1-.16,0-.19,2.67-.46,5.33-.59,8-.06,1.31-.1,2.63-.11,3.94,0,.68,0,1.36,0,2,0,.37,0,.76,0,1.14l-.68.76c-3.09,3.53-6,7.19-8.89,10.91,0-.2,0-.42-.05-.62,0-.41-.09-.82-.13-1.23-.1-.89-.22-1.77-.36-2.66s-.26-1.66-.4-2.49-.38-1.87-.46-2.82a.08.08,0,1,0-.16,0,24.66,24.66,0,0,1,.32,2.84q.12,1.28.24,2.56c.08.85.15,1.71.24,2.56,0,.41.08.82.12,1.23q0,.31.08.61a1.16,1.16,0,0,0,.17.49L64,262.73c-2,2.59-3.87,5.2-5.79,7.82-.06.08.05.19.12.11,1.82-2.37,3.69-4.7,5.58-7,1.42.06,2.87,0,4.28-.07s3,0,4.49,0a.08.08,0,0,0,0-.16c-1.5,0-3,0-4.49.05s-2.75-.06-4.12,0q2.5-3,5-6L71,255.21a8.51,8.51,0,0,0,1.73.06h2c1.27,0,2.55,0,3.82-.05,2.63,0,5.26-.13,7.9-.13a.08.08,0,0,0,0-.16c-2.64,0-5.27-.15-7.9-.21-1.27,0-2.55-.07-3.82-.09l-2,0c-.39,0-.79,0-1.18,0l4.34-5.15a.19.19,0,0,0,.08-.09c1.41-1.67,2.83-3.33,4.25-5l.59-.68c4,.13,8-.14,12-.06C92.92,243.61,92.92,243.45,92.81,243.45Z" transform="translate(-50.72 -43)"/><path class="cls-5" d="M90.83,250.3h-.94a.07.07,0,0,0,0,.14h.94A.08.08,0,0,0,90.83,250.3Z" transform="translate(-50.72 -43)"/><path class="cls-5" d="M88.74,250.31,85,250.24l-1.86-.06a6.94,6.94,0,0,0-1.73,0c-.06,0,0,.1,0,.12a6.62,6.62,0,0,0,1.74.12l1.86,0h3.72A.08.08,0,0,0,88.74,250.31Z" transform="translate(-50.72 -43)"/><path class="cls-5" d="M77.91,261.95a51.7,51.7,0,0,0-7.62-.69s0,.05,0,.06c2.53.24,5.07.38,7.58.79C78,262.12,78,262,77.91,261.95Z" transform="translate(-50.72 -43)"/><path class="cls-5" d="M67.54,250.86c0-.22-.05-.44-.08-.66-.07-.5-.14-1-.22-1.49q-.22-1.42-.49-2.83c0-.09-.17-.06-.16,0q.18,1.46.31,2.93c0,.48.08,1,.12,1.44a4,4,0,0,0,.19,1.37c.07.15.3.09.33-.05A1.87,1.87,0,0,0,67.54,250.86Z" transform="translate(-50.72 -43)"/><path class="cls-5" d="M118.28,222.5c-1.23-2.3-2.8-5.33-5.88-5.14-2.54.16-3.69,2.75-4.23,4.9-1.68,6.63-1.8,13.63-2.12,20.43-.69,14.37-1.31,28.75-1.4,43.14q0,6,0,12c0,4.07,0,8.16.28,12.22a.3.3,0,0,0,.6,0c0-3.48-.1-7-.11-10.44s0-6.79.07-10.19q.17-10.31.55-20.62c.25-6.83.55-13.66.84-20.49q.22-5.12.44-10.24c.15-3.31.29-6.62.67-9.91.21-1.84.48-3.69.87-5.5a7.66,7.66,0,0,1,1.59-3.69,3.47,3.47,0,0,1,4.49-.33,9.53,9.53,0,0,1,3.19,4C118.19,222.68,118.33,222.59,118.28,222.5Z" transform="translate(-50.72 -43)"/><path class="cls-4" d="M117.44,221.4s-2.53-8.94,3.07-4.47c9.32,7.44,9.65,23.63,9.65,23.63s-16.57-9.62-18.63-16C108.46,215.14,117.44,221.4,117.44,221.4Z" transform="translate(-50.72 -43)"/><path class="cls-5" d="M126.67,233.93c-.15-.25-.31-.49-.47-.73a4.72,4.72,0,0,0,0-.76c0-.38,0-.77,0-1.15q0-1.13.08-2.27c0-.1-.15-.1-.16,0q-.06,1.11-.09,2.22c0,.37,0,.74,0,1.11,0,.14,0,.31,0,.48q-1-1.52-2-3l-.61-.84a17.44,17.44,0,0,1,0-2.92c0-1,0-2.08.06-3.12,0-.1-.16-.1-.16,0,0,1.08-.08,2.16-.14,3.24a20.93,20.93,0,0,0-.06,2.31c-1.6-2.18-3.3-4.27-5-6.36-.06-.07-.18,0-.12.1,1.06,1.35,2.08,2.73,3.08,4.12-1.95-.45-3.93-.72-5.91-1-.1,0-.14.14,0,.15,2.1.32,4.16.84,6.22,1.3h0q1.19,1.68,2.36,3.37l.94,1.38h-.09l-.64-.09c-.46-.05-.92-.09-1.38-.13-1-.08-1.91-.13-2.87-.18-.1,0-.1.16,0,.16.94,0,1.88.09,2.81.19l1.48.18.65.08.19,0,1.59,2.35c.94,1.38,1.77,2.86,2.77,4.2a.08.08,0,0,0,.13-.08A43,43,0,0,0,126.67,233.93Z" transform="translate(-50.72 -43)"/><path class="cls-5" d="M122.55,223.83c0-.35,0-.7,0-1a16,16,0,0,1,.09-2.19.08.08,0,1,0-.16,0c0,.72-.08,1.45-.11,2.17,0,.36,0,.72,0,1.09q0,.25,0,.5a1.54,1.54,0,0,0,0,.52.07.07,0,0,0,.14,0,1.49,1.49,0,0,0,0-.48Q122.55,224.1,122.55,223.83Z" transform="translate(-50.72 -43)"/><path class="cls-5" d="M120.5,227.53c-.62-.1-1.25-.14-1.87-.19s-1.37-.12-2-.21a.08.08,0,1,0,0,.16c1.31.08,2.61.32,3.92.36A.06.06,0,0,0,120.5,227.53Z" transform="translate(-50.72 -43)"/><path class="cls-5" d="M125.7,227.59c0,.07,0,.26,0,.34v.29c0,.21,0,.42,0,.63v.63a1.31,1.31,0,0,0,0,.55,0,0,0,0,0,.06,0,.55.55,0,0,0,0-.26q0-.14,0-.29v-.63c0-.21,0-.42,0-.63v-.29c0-.09,0-.27,0-.34S125.6,227.44,125.7,227.59Z" transform="translate(-50.72 -43)"/><path class="cls-5" d="M118.66,270.21c-3.48-2.62-6.61-6.37-11.3-6.56-3.87-.15-6.58,2.76-8.13,6a33.86,33.86,0,0,0-1.9,5.34q-1,3.67-2,7.38c-1.21,4.86-2.26,9.76-3.1,14.7-.47,2.75-.91,5.51-1.26,8.28a69.81,69.81,0,0,0-.81,8.48.44.44,0,0,0,.86.1c.47-2.32.67-4.71,1-7s.7-4.71,1.1-7.05q1.2-7,2.77-14c1-4.38,2-8.83,3.4-13.1,1-3.06,2.64-6.63,5.94-7.73,5-1.67,9.59,2.58,13.27,5.34C118.63,270.39,118.74,270.28,118.66,270.21Z" transform="translate(-50.72 -43)"/><path class="cls-4" d="M115.06,267.71s-3.21-9.17,1.43-11c7-2.69,25.18,17.83,21.61,49.27,0,0-14.08-7.75-24.47-16.48s-13.06-20.12-8.48-23.06S115.06,267.71,115.06,267.71Z" transform="translate(-50.72 -43)"/><path class="cls-5" d="M136,299.27a24.18,24.18,0,0,0-1.69-3.17c-.59-1.08-1.2-2.15-1.82-3.21-1.21-2.07-2.41-4.14-3.65-6.2l-.61-1c0-.12,0-.25.08-.37l.21-.91c.15-.68.27-1.37.4-2.06.25-1.35.49-2.71.85-4,0-.1-.14-.13-.16,0-.29,1.34-.71,2.67-1.11,4-.2.65-.4,1.29-.58,1.95l-.18.67c-1.5-2.45-3-4.9-4.66-7.25a3.29,3.29,0,0,0,.16-1c0-.46.1-.92.16-1.38.12-1,.24-2.07.39-3.1a60.12,60.12,0,0,1,1.1-6c0-.1-.13-.13-.16,0-.5,2-1,4-1.42,6-.18,1-.36,2-.49,3-.07.5-.12,1-.17,1.49,0,.15,0,.3-.06.45-.51-.71-1-1.43-1.54-2.12-1.61-2.11-3.27-4.18-5-6.24-.06-.08-.2,0-.13.09a110.85,110.85,0,0,1,7.92,11.56c.46.74.91,1.48,1.37,2.22l-.45-.06c-.59-.07-1.18-.11-1.78-.17l-3.56-.31c-2.37-.19-4.75-.33-7.12-.59-.1,0-.13.15,0,.16,2.4.27,4.78.66,7.17,1L123,283a14,14,0,0,0,2.71.28l2.8,4.54a5.33,5.33,0,0,0-.63,0h-3.39c-1.53,0-3.05,0-4.58,0-.1,0-.09.16,0,.16,1.55,0,3.09.1,4.64.18l2.2.13,1.1.08a2.25,2.25,0,0,0,1,0l2.38,3.86c.73,1.19,1.46,2.37,2.22,3.55a28.51,28.51,0,0,0,2.39,3.58C135.91,299.42,136,299.37,136,299.27Z" transform="translate(-50.72 -43)"/><path class="cls-5" d="M129.29,273.86a22.37,22.37,0,0,1-.63,3q-.39,1.53-.89,3a.1.1,0,1,0,.19.06q.47-1.49.84-3c.24-1,.4-2,.65-3C129.47,273.79,129.3,273.76,129.29,273.86Z" transform="translate(-50.72 -43)"/><path class="cls-5" d="M119,280a1.18,1.18,0,0,0-.77-.29l-1.33-.18c-.82-.11-1.65-.2-2.47-.3-1.72-.2-3.43-.37-5.15-.58-.1,0-.13.14,0,.16,1.62.2,3.23.44,4.84.65.79.1,1.58.22,2.38.31l1.14.13a4,4,0,0,1,1.31.22C119,280.16,119,280.06,119,280Z" transform="translate(-50.72 -43)"/><path class="cls-5" d="M129.27,293.83c-.81-.07-1.63-.09-2.44-.12l-1.23,0-.59,0a3.67,3.67,0,0,1-.77,0c-.11,0-.12.18,0,.16a3.45,3.45,0,0,1,.72,0l.64,0,1.23.07c.81,0,1.63.1,2.44.1C129.36,294,129.37,293.84,129.27,293.83Z" transform="translate(-50.72 -43)"/><path class="cls-5" d="M134.23,290.31c.09-.46.18-.92.26-1.38l.5-2.72a.08.08,0,0,0-.16,0l-.6,2.65c-.1.44-.2.88-.29,1.33l-.13.61a1.7,1.7,0,0,0-.07.65c0,.07.12.13.18.06A3.32,3.32,0,0,0,134.23,290.31Z" transform="translate(-50.72 -43)"/><polygon class="cls-6" points="35.85 267.31 36.83 278.46 40.16 316.1 69.63 316.1 73.79 278.46 75.02 267.31 35.85 267.31"/><polygon class="cls-5" points="35.85 267.31 36.83 278.46 73.79 278.46 75.02 267.31 35.85 267.31"/><rect class="cls-6" x="83.65" y="307.28" width="45.01" height="9.04" transform="translate(161.59 580.59) rotate(180)"/></g><g id="Floor"><polygon class="cls-5" points="0 316.18 81.07 315.94 162.14 315.85 324.28 315.69 486.42 315.85 567.49 315.94 648.56 316.18 567.49 316.43 486.42 316.52 324.28 316.68 162.14 316.52 81.07 316.43 0 316.18"/></g><g id="Device"><rect class="cls-3" x="87.64" y="20.91" width="471.59" height="315.46"/><rect class="cls-7" x="91.07" y="24.76" width="464.73" height="307.76"/><rect class="cls-8" x="26.22" y="360.02" width="594.43" height="21.65"/><polygon class="cls-3" points="26.22 360.02 87.64 336.37 559.23 336.37 620.66 360.02 26.22 360.02"/><polygon class="cls-7" points="93.13 351.63 132.77 336.37 514.11 336.37 553.75 351.63 93.13 351.63"/><rect class="cls-9" x="117.34" y="48.14" width="412.21" height="261"/><rect class="cls-10" x="116.99" y="48.14" width="412.56" height="10.04"/><circle class="cls-11" cx="122.48" cy="53.16" r="2.49"/><circle class="cls-9" cx="132.65" cy="53.16" r="2.49"/><circle class="cls-12" cx="142.82" cy="53.16" r="2.49"/><path class="cls-13" d="M374.59,221.55a10.68,10.68,0,1,0-10.74-10.62A10.68,10.68,0,0,0,374.59,221.55Zm-9.44-10.62a9.38,9.38,0,1,1,9.43,9.32A9.37,9.37,0,0,1,365.15,210.93Zm9.44,10.62a10.68,10.68,0,1,0-10.74-10.62A10.68,10.68,0,0,0,374.59,221.55Zm-9.44-10.62a9.38,9.38,0,1,1,9.43,9.32A9.37,9.37,0,0,1,365.15,210.93Zm9.44,10.62a10.68,10.68,0,1,0-10.74-10.62A10.68,10.68,0,0,0,374.59,221.55Zm-9.44-10.62a9.38,9.38,0,1,1,9.43,9.32A9.37,9.37,0,0,1,365.15,210.93Zm9.5,22.45A22.51,22.51,0,1,0,352,211,22.52,22.52,0,0,0,374.65,233.38Zm-12.46-22.44a12.34,12.34,0,1,1,12.41,12.26A12.35,12.35,0,0,1,362.19,210.95Zm1.66,0a10.68,10.68,0,1,0,10.61-10.74A10.68,10.68,0,0,0,363.85,210.93Zm1.3,0a9.38,9.38,0,1,1,9.43,9.32A9.37,9.37,0,0,1,365.15,210.93Zm9.44,10.62a10.68,10.68,0,1,0-10.74-10.62A10.68,10.68,0,0,0,374.59,221.55Zm-9.44-10.62a9.38,9.38,0,1,1,9.43,9.32A9.37,9.37,0,0,1,365.15,210.93Zm9.44,10.62a10.68,10.68,0,1,0-10.74-10.62A10.68,10.68,0,0,0,374.59,221.55Zm-9.44-10.62a9.38,9.38,0,1,1,9.43,9.32A9.37,9.37,0,0,1,365.15,210.93Z" transform="translate(-50.72 -43)"/><polygon class="cls-13" points="319.35 146.32 328.01 146.27 327.49 140.15 319.79 140.19 319.35 146.32"/><polygon class="cls-13" points="335.84 149.14 342 155.22 345.96 150.53 340.49 145.12 335.84 149.14"/><polygon class="cls-13" points="345.51 162.79 345.56 171.45 351.68 170.93 351.64 163.24 345.51 162.79"/><polygon class="cls-13" points="342.69 179.28 336.61 185.44 341.3 189.41 346.71 183.93 342.69 179.28"/><polygon class="cls-13" points="329.04 188.95 320.38 189 320.9 195.13 328.6 195.08 329.04 188.95"/><polygon class="cls-13" points="312.55 186.13 306.39 180.05 302.43 184.74 307.9 190.15 312.55 186.13"/><polygon class="cls-13" points="302.88 172.48 302.83 163.82 296.7 164.34 296.75 172.04 302.88 172.48"/><polygon class="cls-13" points="305.7 155.99 311.78 149.83 307.09 145.87 301.68 151.34 305.7 155.99"/><rect class="cls-14" x="218.04" y="234.04" width="212.48" height="12.99"/><rect class="cls-13" x="220.51" y="236.51" width="4.82" height="8.06"/><rect class="cls-13" x="227.15" y="236.51" width="4.82" height="8.06"/><rect class="cls-13" x="233.8" y="236.51" width="4.82" height="8.06"/><rect class="cls-13" x="240.45" y="236.51" width="4.82" height="8.06"/><rect class="cls-13" x="247.1" y="236.51" width="4.82" height="8.06"/><rect class="cls-13" x="253.75" y="236.51" width="4.82" height="8.06"/><rect class="cls-13" x="260.4" y="236.51" width="4.82" height="8.06"/><rect class="cls-13" x="267.04" y="236.51" width="4.82" height="8.06"/><rect class="cls-13" x="273.69" y="236.51" width="4.82" height="8.06"/><rect class="cls-13" x="280.34" y="236.51" width="4.82" height="8.06"/><rect class="cls-13" x="286.99" y="236.51" width="4.82" height="8.06"/><rect class="cls-13" x="293.64" y="236.51" width="4.82" height="8.06"/><circle class="cls-13" cx="324" cy="125.02" r="4.71"/><circle class="cls-18" cx="301.17" cy="131.12" r="4.48"/><circle class="cls-19" cx="286.89" cy="146.67" r="4.25"/><circle class="cls-20" cx="282.01" cy="167.58" r="4.02"/><circle class="cls-21" cx="286.53" cy="187.3" r="3.79"/><circle class="cls-22" cx="300.36" cy="203.43" r="3.55"/><circle class="cls-23" cx="324.15" cy="210.18" r="3.32"/><circle class="cls-24" cx="348.25" cy="202.92" r="3.09"/><circle class="cls-25" cx="361.98" cy="186" r="2.86"/><circle class="cls-26" cx="366.38" cy="167.16" r="2.63"/><circle class="cls-27" cx="359.57" cy="142.91" r="2.4"/><circle class="cls-28" cx="343.26" cy="129.27" r="2.17"/></g><g id="Arrows"><path class="cls-13" d="M593.38,61.12,587,54.47a39.56,39.56,0,0,1,66.73,25.74l-9.16.68a30.38,30.38,0,0,0-51.24-19.78Z" transform="translate(-50.72 -43)"/><polygon class="cls-13" points="585.59 31.79 594.92 55.67 610.93 35.65 585.59 31.79"/><g class="cls-29"><path d="M593.38,61.12,587,54.47a39.56,39.56,0,0,1,66.73,25.74l-9.16.68a30.38,30.38,0,0,0-51.24-19.78Z" transform="translate(-50.72 -43)"/><polygon points="585.59 31.79 594.92 55.67 610.93 35.65 585.59 31.79"/></g><path class="cls-13" d="M597.82,116.54A39.76,39.76,0,0,1,576,84l9.16-.68a30.38,30.38,0,0,0,52.58,18.42l6.74,6.24A39.76,39.76,0,0,1,597.82,116.54Z" transform="translate(-50.72 -43)"/><polygon class="cls-13" points="542.72 46.44 533.39 22.56 517.37 42.58 542.72 46.44"/></g><g id="Shadow"><ellipse class="cls-3" cx="423.31" cy="409.8" rx="96.83" ry="9.45"/></g><g id="Character"><path class="cls-30" d="M490.82,454.59c2.16-.79,51-39.86,52-42.53.36-1-4.92-8.46-11.55-17.28-1.43-1.91-2.92-3.86-4.44-5.84-9.88-12.87-20.66-26.3-20.66-26.3l-32.77,26,21.56,25.58,4.73,5.62s-12,23.33-12.72,26.36S488.65,455.38,490.82,454.59Z" transform="translate(-50.72 -43)"/><path class="cls-9" d="M490.82,454.59c2.16-.79,51-39.86,52-42.53.43-1.23-7.45-12-16-23.13l-31.87,25.32,4.73,5.62s-12,23.33-12.72,26.36S488.65,455.38,490.82,454.59Z" transform="translate(-50.72 -43)"/><path class="cls-13" d="M490.82,454.59c2.16-.79,51-39.86,52-42.53.36-1-4.92-8.46-11.55-17.28l-31.59,25.1s-12,23.33-12.72,26.36S488.65,455.38,490.82,454.59Z" transform="translate(-50.72 -43)"/><path class="cls-5" d="M490,452.08c8-6.75,41.07-33.22,49.52-39.28.07,0,.1,0,0,.05-7.82,6.86-41.07,33.06-49.46,39.36C489.89,452.34,489.79,452.22,490,452.08Z" transform="translate(-50.72 -43)"/><path class="cls-5" d="M488.67,442a8.43,8.43,0,0,1,6.5-1.92,8.16,8.16,0,0,1,5.33,2.91c0,.05-.05.12-.1.08a9.74,9.74,0,0,0-11.65-1A.07.07,0,0,1,488.67,442Z" transform="translate(-50.72 -43)"/><path class="cls-5" d="M497.12,423.23c3.24-2.67,8-4.55,12.15-3.49.16,0,.1.27,0,.3a58,58,0,0,0-11.85,3.65A.26.26,0,0,1,497.12,423.23Z" transform="translate(-50.72 -43)"/><path class="cls-5" d="M495.38,426.24c3.24-2.67,8-4.55,12.15-3.49.16,0,.1.27,0,.3a58,58,0,0,0-11.85,3.65A.26.26,0,0,1,495.38,426.24Z" transform="translate(-50.72 -43)"/><path class="cls-5" d="M493.64,429.25c3.24-2.67,8-4.55,12.15-3.49.16,0,.1.27,0,.3a58,58,0,0,0-11.85,3.65A.26.26,0,0,1,493.64,429.25Z" transform="translate(-50.72 -43)"/><path class="cls-5" d="M491.89,432.26c3.24-2.67,8-4.55,12.15-3.49.16,0,.1.27,0,.3a58,58,0,0,0-11.85,3.64A.26.26,0,0,1,491.89,432.26Z" transform="translate(-50.72 -43)"/><path class="cls-9" d="M531.17,406.68c3.69-2.93,8.25,2.8,4.55,5.73S527.48,409.62,531.17,406.68Z" transform="translate(-50.72 -43)"/><path class="cls-5" d="M490.69,421.91c3.59.87,7.44.15,11.07-.1a.51.51,0,0,0,.38-.74.11.11,0,0,0,0-.18,22,22,0,0,0-9.68-6c-2.17-.61-5.33-.29-5.89,2.42S488.59,421.4,490.69,421.91Zm-2.32-2.6c-2.53-3.83,2.88-3.66,4.46-3.15a23.74,23.74,0,0,1,3,1.25,66,66,0,0,1,5.73,3.38c-1.79,0-3.56.18-5.35.26C494.05,421.16,489.76,421.43,488.37,419.32Z" transform="translate(-50.72 -43)"/><path class="cls-5" d="M512.13,409.5c-2-1.94-4.78-.45-6.24,1.27a22,22,0,0,0-4.71,10.37.11.11,0,0,0,.12.13.51.51,0,0,0,.72.4c3.15-1.81,6.75-3.35,9.25-6.07C512.74,414,514,411.33,512.13,409.5ZM506.25,418c-1.53.93-3.09,1.77-4.59,2.75a66,66,0,0,1,2.88-6,23.68,23.68,0,0,1,1.77-2.69c1-1.3,5.43-4.45,5.46.13C511.78,414.68,508.07,416.85,506.25,418Z" transform="translate(-50.72 -43)"/><path class="cls-6" d="M440.26,338.61c2.25,17,44.21,66.18,49.06,71.82l1.1,1.28L525.13,385l-.4-.52-30.57-40,91.17,9.17L561.72,327s-2.81,1.62-8.65.77c-20.12-2.95-76.49-19.47-87.18-19C452.09,309.35,438.2,323,440.26,338.61Z" transform="translate(-50.72 -43)"/><path class="cls-5" d="M483.19,329.62a40.85,40.85,0,0,1,3.15,4c1.08,1.42,2.18,2.82,3.26,4.24l0,0c-.19-.42-.38-.83-.58-1.24-.68-1.41-1.23-2.87-2-4.22a.07.07,0,0,1,.13-.08c.83,1.34,1.79,2.61,2.5,4,.33.66.65,1.33.94,2,.16.37.33.75.47,1.13a5.45,5.45,0,0,1,.2.55c.48.66,1,1.32,1.43,2,1,1.49,1.94,3.07,3,4.55.06.08-.07.15-.13.08-1.05-1.39-2.24-2.69-3.31-4.07s-2.13-2.85-3.15-4.3-2-2.85-3-4.27a42.52,42.52,0,0,1-3-4.39C483.07,329.64,483.14,329.58,483.19,329.62Z" transform="translate(-50.72 -43)"/><path class="cls-30" d="M571.55,289.25c-5,19.61-14.94,43-19,46.76-5.18,4.73-38.87,12.82-40.55,13-4.15.32-11.72-29.65-7.3-30.18,6.73-.81,31.14-1.55,32.63-3s12.15-14.26,23.08-28.66C567.93,277.15,574.65,277.08,571.55,289.25Z" transform="translate(-50.72 -43)"/><path class="cls-30" d="M515.32,347.44a90.57,90.57,0,0,1-11.94,4.74c-3.25.86-12.67,3.08-14-.41-.89-2.38,4.5-4.33,8.28-5.8,2-.77,4.47-2.78,3.92-4.06-1-2.24-6.09-.14-9.47,1.72-6.54,3.59-15.3,10.14-19.16,6.77-1.46-1.27.33-3.48,2.91-5.63-4.17,2.48-8.6,4.48-10.27,3.13-1-.77-1-1.79-.41-2.95a2.88,2.88,0,0,1-3.16-.57c-1.3-1.43-.6-3.48.91-5.55a1.59,1.59,0,0,1-1.19-.83c-2.72-4.38,11.72-16.41,16.64-17.45A123.87,123.87,0,0,1,508,318.48C513.58,323.13,515.34,347.43,515.32,347.44Z" transform="translate(-50.72 -43)"/><path class="cls-5" d="M494.48,333.68a24.44,24.44,0,0,0-9.69,3.47c-3.71,2.32-6.2,5.08-9.33,7.85-.08.07,0,.2.11.13,1.49-1.31,7.66-6.24,9.25-7.36a23.27,23.27,0,0,1,9.67-4S494.51,333.68,494.48,333.68Z" transform="translate(-50.72 -43)"/><path class="cls-5" d="M491.94,327.51a58.21,58.21,0,0,0-11.26,3.6c-3.89,1.87-7,5-10,8q-2.73,2.7-5.34,5.53c-.07.08,0,.21.11.13q4.61-4.65,9.51-9a30.78,30.78,0,0,1,10.34-6.18c2.18-.77,4.42-1.38,6.66-2C492,327.57,492,327.5,491.94,327.51Z" transform="translate(-50.72 -43)"/><path class="cls-5" d="M488,322.07c-3.69.67-6.92,1.24-10.22,3.13a52.57,52.57,0,0,0-10.13,8.32c-1.65,1.68-3.25,3.42-4.82,5.18-.06.07.06.18.13.11A122.11,122.11,0,0,1,474.46,328a24.29,24.29,0,0,1,6.37-3.93,43.74,43.74,0,0,1,7.2-2A0,0,0,0,0,488,322.07Z" transform="translate(-50.72 -43)"/><path class="cls-4" d="M510.38,317.31l9.52,32.87s28.07-7.29,33.3-12.66S568.5,304,571.6,290.32s-3.87-13.51-10.46-5-23,29.15-23.91,29.58S510.38,317.31,510.38,317.31Z" transform="translate(-50.72 -43)"/><path class="cls-5" d="M522.92,335.76c-1.15-3.88-2.34-7.74-3.35-11.66-.57-2.23-1.16-4.45-1.71-6.68,0-.08.12-.13.15,0,1.31,3.84,2.62,7.7,3.76,11.61s2.3,7.76,3.38,11.66c.61,2.22,1.16,4.44,1.64,6.7,0,0-.06.07-.08,0C525.25,343.55,524.08,339.66,522.92,335.76Z" transform="translate(-50.72 -43)"/><path class="cls-9" d="M522.11,316.39l.23,0a2.37,2.37,0,0,0,0,.27,12.63,12.63,0,0,0,.82,4.3,13.49,13.49,0,0,0,2.25,3.77,9.37,9.37,0,0,0,3.46,2.64,13.64,13.64,0,0,0,4.26,1.07,24.43,24.43,0,0,0,3.51.09h.26l.65,0c1.48-.09,2.95-.26,4.42-.44a83.4,83.4,0,0,1,8.84-.89,16.47,16.47,0,0,1,4.42.45,8.18,8.18,0,0,1,3,1.41l-.06.13a8.06,8.06,0,0,0-3-1.4,16.5,16.5,0,0,0-4.38-.43,86.46,86.46,0,0,0-8.83.91c-1.47.18-2.95.35-4.42.45l-.43,0h-.25a24,24,0,0,1-3.78-.07,13.91,13.91,0,0,1-4.32-1.08,9.77,9.77,0,0,1-3.55-2.69,13.42,13.42,0,0,1-2.29-3.83,12.86,12.86,0,0,1-.61-2.15,14.52,14.52,0,0,1-.22-2.23A2.18,2.18,0,0,1,522.11,316.39Zm9.27,3.73a15.61,15.61,0,0,0,1.69,4.11,15.83,15.83,0,0,0,2.71,3.53q.41.39.85.76a1.37,1.37,0,0,0,.25.18,13,13,0,0,0,2.57,1.6,22.7,22.7,0,0,0,4.21,1.46c2.87.72,5.82,1.14,8.56,2.28a14.28,14.28,0,0,1,2.6,1.36.48.48,0,0,1,.07-.11,14.76,14.76,0,0,0-2.61-1.38c-2.76-1.15-5.72-1.57-8.58-2.3a22.12,22.12,0,0,1-4.18-1.46,13.84,13.84,0,0,1-2.38-1.46,2,2,0,0,1-.24-.18,12.93,12.93,0,0,1-1-.87,16.75,16.75,0,0,1-4.35-7.57,16.67,16.67,0,0,1-.44-4.38.18.18,0,0,1,0-.07l-.21,0v.05A16.24,16.24,0,0,0,531.39,320.12Z" transform="translate(-50.72 -43)"/><path class="cls-31" d="M518.94,346.91l.95,3.27s28.08-7.29,33.3-12.66S568.5,304,571.6,290.32c2.27-10-.85-12.61-5.26-10C554.38,296.81,531.85,328,518.94,346.91Z" transform="translate(-50.72 -43)"/><path class="cls-4" d="M603.77,353.94c-.16.16-59.49-12.84-60-13.53-.77-1,9.84-45.59,21-58.91,2.8-3.33,11.7-3.1,15.69.26C600.2,298.42,604.33,353.36,603.77,353.94Z" transform="translate(-50.72 -43)"/><path class="cls-30" d="M585.32,285.13c12.3,9.46,44.73,47.72,37.95,56.8S570,348,556.48,344.08c-4-1.16,6.31-26.81,10.62-28.08,3.58-1.06,23.69,4.4,24.06,3.24.41-1.32-4-9.8-11.23-25.3C571.64,276.06,579.89,280.95,585.32,285.13Z" transform="translate(-50.72 -43)"/><path class="cls-30" d="M547.29,311.55c-9.29.24-11.64,1.73-19.59-2.24-5.22-2.6-9.12-.39-5.57,4.53,5.8,8,17.85,10.26,22.25,9.82Z" transform="translate(-50.72 -43)"/><path class="cls-30" d="M572.86,316.3s-11.14-4-21.07-4.71c-6.87-.5-21.92.07-33.63,17-2.78,4-3.89,11.68,3,6.79,4.91-3.48,7-7.17,10.19-8.67,0,0-.26,9.93,3.86,12.56a89.93,89.93,0,0,0,11.26,6.09,18.9,18.9,0,0,0,1.33-2s4.08,2.09,10.82.3Z" transform="translate(-50.72 -43)"/><path class="cls-30" d="M545.16,312.16c-2.88,2.17-8.92,6.87-12.52,12.43-4,6.18-10,19.15-5.45,22.06,3.37,2.13,6.11-2.62,6.11-2.62s-1.37,5.89,2.09,7.15c3.15,1.15,5.05-2.65,5.05-2.65s-.21,3.71,3,4.23c3.91.63,3.72-7.26,8.23-10C552.72,342.07,545.16,312.16,545.16,312.16Z" transform="translate(-50.72 -43)"/><path class="cls-5" d="M539.87,327.72a29.31,29.31,0,0,0-6.65,16.16c0,.15.1.24.14.1a72.21,72.21,0,0,1,6.57-16.23S539.9,327.69,539.87,327.72Z" transform="translate(-50.72 -43)"/><path class="cls-5" d="M546,331.94c-1.83,2.35-5.58,9.78-5.67,16.53,0,.15.11.23.14.09A77.4,77.4,0,0,1,546,332S546,331.91,546,331.94Z" transform="translate(-50.72 -43)"/><path class="cls-5" d="M531.36,326.61c-2.82,1.36-4.5,3.13-6.71,5.28a41.17,41.17,0,0,1-3.41,3c-1.1.85-2.71,2.13-4.17,1.32a2.46,2.46,0,0,1-.95-2.33,12,12,0,0,1,1.07-3.64s-.05-.08-.08,0a17.18,17.18,0,0,0-1.28,3.29,4,4,0,0,0,.11,2.35c.71,1.56,2.67,1.46,4,.78a13.09,13.09,0,0,0,2.14-1.51c.65-.53,1.27-1.09,1.88-1.67,1.25-1.18,2.43-2.44,3.67-3.64a39.07,39.07,0,0,1,3.83-3.17C531.48,326.66,531.42,326.58,531.36,326.61Z" transform="translate(-50.72 -43)"/><path class="cls-5" d="M526.89,338a93.69,93.69,0,0,1,4.55-11.38,0,0,0,0,0-.07,0c-1.95,2.57-4.69,9-5.25,11a16.44,16.44,0,0,0-.81,6.54c.51,3.09,2.66,3.34,3.44,3.37a4.07,4.07,0,0,0,2.56-.87,8.19,8.19,0,0,0,2-2.64s0-.1-.07,0c-.87,1.4-2.45,2.89-4.17,3a2.85,2.85,0,0,1-2.08-.72,3.69,3.69,0,0,1-.91-2.41A17.13,17.13,0,0,1,526.89,338Z" transform="translate(-50.72 -43)"/><path class="cls-4" d="M572.86,316.3l-9.33,32.49s58.08,3.31,61.3-7.24S600,296.45,588.35,287c-13.49-11-14.21-6.38-9.82,4.62,4.6,11.52,12.51,28,12.51,28Z" transform="translate(-50.72 -43)"/><path class="cls-9" d="M589.5,313.89a13.74,13.74,0,0,0,4.26-1.07,23.75,23.75,0,0,0,3.12-1.6l.23-.14.56-.34c1.25-.78,2.46-1.62,3.67-2.48,1.4-1,2.8-2,4.22-3l.1.13c-1.43,1-2.82,2-4.22,3-1.21.87-2.42,1.72-3.68,2.51l-.36.22-.23.14a25.84,25.84,0,0,1-3.34,1.73,13.66,13.66,0,0,1-4.32,1.1,8.56,8.56,0,0,1-1,0l-.09-.21A10,10,0,0,0,589.5,313.89Zm-11.24-27.18a12.49,12.49,0,0,0-1.78-1.27c0,.1,0,.2.07.31a11.6,11.6,0,0,1,1.56,1.13,12.94,12.94,0,0,1,2.77,3.4,23.1,23.1,0,0,1,1.77,4c.49,1.39.92,2.82,1.39,4.22a31.26,31.26,0,0,0,1.7,4.12,16.52,16.52,0,0,0,2.52,3.67,16.79,16.79,0,0,0,7.52,4.63,10.39,10.39,0,0,0,1.1.25l.29.05a13.93,13.93,0,0,0,3,.18,21.45,21.45,0,0,0,4.39-.71c1.46-.37,2.89-.82,4.34-1.22l-.09-.12c-1.43.38-2.85.82-4.29,1.18a21.87,21.87,0,0,1-4.36.7,13.08,13.08,0,0,1-2.79-.16,1.44,1.44,0,0,1-.29-.05,9.47,9.47,0,0,1-1.29-.28,15.88,15.88,0,0,1-4-1.8,15.56,15.56,0,0,1-3.41-2.79,16.88,16.88,0,0,1-2.47-3.64,29.76,29.76,0,0,1-1.68-4.1c-.47-1.39-.89-2.82-1.38-4.22a23.45,23.45,0,0,0-1.78-4.08,13.75,13.75,0,0,0-1.26-1.86A13.28,13.28,0,0,0,578.26,286.71Zm-3.87,31.86c0,.45,0,.89,0,1.34,0,0,0,.09,0,.15a17.2,17.2,0,0,0,.48,2.92,15.81,15.81,0,0,0,1.67,4.12,14.8,14.8,0,0,0,2.8,3.45c2.19,2,4.83,3.45,7.26,5.13a21.4,21.4,0,0,1,3.41,2.81,13.45,13.45,0,0,1,1.73,2.2,1.16,1.16,0,0,1,.17.25,12.12,12.12,0,0,1,.63,1.14,15.6,15.6,0,0,1,1.3,4.21,16.61,16.61,0,0,1,.24,2.79h.19a17.06,17.06,0,0,0-1.58-7.08c-.16-.34-.34-.66-.52-1l-.16-.26a14.29,14.29,0,0,0-1.88-2.39,21.7,21.7,0,0,0-3.44-2.82c-2.44-1.68-5.07-3.09-7.25-5.09a14.59,14.59,0,0,1-2.79-3.42,16,16,0,0,1-1.67-4.09,17.31,17.31,0,0,1-.51-3c0-.05,0-.1,0-.15,0-.41,0-.81,0-1.22a15.11,15.11,0,0,1,.13-1.95l-.07,0A17.77,17.77,0,0,0,574.39,318.56Zm-2.81,13.51a7.93,7.93,0,0,0,2.86,3.38,16.67,16.67,0,0,0,4,1.95,87.11,87.11,0,0,0,8.61,2.22c1.44.34,2.87.69,4.29,1.11l.63.2a1.18,1.18,0,0,1,.25.08,24.78,24.78,0,0,1,3.26,1.29,13.59,13.59,0,0,1,3.62,2.47,9.58,9.58,0,0,1,2.35,3.67,2,2,0,0,1,.07.23l.23,0-.09-.28a9.72,9.72,0,0,0-2.41-3.74,13.81,13.81,0,0,0-3.68-2.52,26.29,26.29,0,0,0-3.5-1.36l-.26-.07-.41-.13c-1.42-.43-2.86-.78-4.31-1.11a88,88,0,0,1-8.59-2.19,16.56,16.56,0,0,1-4-1.92,7.79,7.79,0,0,1-2.82-3.31,8.92,8.92,0,0,1-.68-4.31,11.45,11.45,0,0,1,1.34-4.18c.62-1.19,1.36-2.34,2.09-3.48l.07-.13a28.74,28.74,0,0,0,1.71-3h-.06a28.24,28.24,0,0,1-1.66,2.89.87.87,0,0,1-.08.13c-.74,1.17-1.51,2.34-2.16,3.57a11.38,11.38,0,0,0-1.37,4.22A9,9,0,0,0,571.58,332.08Z" transform="translate(-50.72 -43)"/><path class="cls-5" d="M609.39,324.74a66.34,66.34,0,0,0-9-3.45,64.46,64.46,0,0,0-9.26-2c-1.79-.28-3.58-.47-5.37-.68-.05,0-.06.08,0,.08a82.82,82.82,0,0,1,9.34,2q4.59,1.2,9.13,2.56c1.71.51,3.4,1.11,5.09,1.68A.06.06,0,0,0,609.39,324.74Z" transform="translate(-50.72 -43)"/><path class="cls-5" d="M573,316.18c.29,0,16.44,2.55,17,2.7-.1-.22-4.2-7.91-4.81-9l-.18-.34c-.37-.49-.74-1-1.08-1.47l-1.33-1.93s0,0,0,0L584,308c.22.29.42.58.63.88-.41-.8-.81-1.6-1.21-2.4-.64-1.28-1.23-2.58-1.82-3.89,0,0,0-.07.07,0,1.21,2.24,2.48,4.44,3.69,6.68s5.81,10.46,5.78,10.45-17.85-3.16-18.2-3.24A.11.11,0,0,1,573,316.18Z" transform="translate(-50.72 -43)"/><path class="cls-5" d="M575.22,336c1-3.62,2-7.25,3.17-10.84.66-2,1.3-4.08,2-6.11,0-.08.16,0,.14,0-.88,3.68-1.77,7.36-2.82,11s-2.05,7.24-3.14,10.85q-.93,3.07-2,6.08s-.08,0-.07,0C573.18,343.29,574.19,339.65,575.22,336Z" transform="translate(-50.72 -43)"/><path class="cls-5" d="M562.89,349.37c.41-1,.89-2.47,1.34-3.48.12-.26.31-.25.23,0-.29.91-.48,1.92-.76,2.85.81,0,1.62,0,2.44.07l2.82.12q2.76.11,5.52.16,5.59.1,11.18,0A216.24,216.24,0,0,0,608,347.52c2.07-.27,4.14-.57,6.2-.94a60.54,60.54,0,0,0,6-1.3c.05,0,.08.08,0,.1a34.36,34.36,0,0,1-5.18,1.56q-2.78.6-5.59,1c-3.73.57-7.49.95-11.25,1.22q-11.19.81-22.43.68-3.14,0-6.29-.14c-1.06,0-2.11-.07-3.17-.13A20.2,20.2,0,0,1,562.89,349.37Z" transform="translate(-50.72 -43)"/><rect class="cls-11" x="429.48" y="312.69" width="68.59" height="3.07"/><polygon class="cls-2" points="429.48 312.69 429.48 315.76 476.1 315.76 473.75 312.69 429.48 312.69"/><polygon class="cls-11" points="470.79 315.76 403.95 315.76 398.38 270.36 465.23 270.36 470.79 315.76"/><path class="cls-9" d="M489.38,336.06a4,4,0,0,1-4,4.07,4.16,4.16,0,0,1-4.14-4.07,4,4,0,0,1,4-4.07A4.16,4.16,0,0,1,489.38,336.06Z" transform="translate(-50.72 -43)"/><path class="cls-30" d="M567.56,291.78c2.72,0,8.05-5.43,10-9.82.13-.3-.56-3.3-1.24-7-.4-2.24-.79-4.74-1-7l-14.19,4.73a36.93,36.93,0,0,1,2.14,8.75,5.19,5.19,0,0,1,0,1s0,.1,0,.16C563.12,284.34,563.31,291.84,567.56,291.78Z" transform="translate(-50.72 -43)"/><path class="cls-5" d="M563.28,282.36a1.43,1.43,0,0,0,0,.16,9.15,9.15,0,0,0,1.5,0c8.22-.88,9.39-11.08,9.55-14.2l-13.17,4.38a37.22,37.22,0,0,1,2.15,8.75A6.11,6.11,0,0,1,563.28,282.36Z" transform="translate(-50.72 -43)"/><path class="cls-30" d="M573.44,249.84c2.68,4.67,3.34,19.79.5,23.84-4.11,5.87-12.49,8.26-17.89,2.94-5.24-5.15-5.75-24.87-2.43-28.72C558.51,242.23,569.48,242.94,573.44,249.84Z" transform="translate(-50.72 -43)"/><path class="cls-5" d="M563.49,260.33a12.86,12.86,0,0,1-1.3-.35,2.19,2.19,0,0,1-1.26-.61.7.7,0,0,1,0-.85,1.73,1.73,0,0,1,1.72-.31,2.53,2.53,0,0,1,1.54,1A.74.74,0,0,1,563.49,260.33Z" transform="translate(-50.72 -43)"/><path class="cls-5" d="M553.22,261.19a12.79,12.79,0,0,0,1.28-.44,2.18,2.18,0,0,0,1.22-.69.7.7,0,0,0-.1-.84,1.73,1.73,0,0,0-1.74-.19,2.53,2.53,0,0,0-1.47,1.08A.74.74,0,0,0,553.22,261.19Z" transform="translate(-50.72 -43)"/><path class="cls-5" d="M563.65,272.19c-.23.26-.44.6-.81.66a2.69,2.69,0,0,1-1.11-.17,0,0,0,0,0,0,.06,1.37,1.37,0,0,0,1.33.45,1.09,1.09,0,0,0,.73-1C563.76,272.17,563.68,272.16,563.65,272.19Z" transform="translate(-50.72 -43)"/><path class="cls-5" d="M562.35,269.23a3.47,3.47,0,0,1-2.19,1.71,4.36,4.36,0,0,1-1.24.15h-.24l-.23,0a.25.25,0,0,1-.22-.21h0a.48.48,0,0,1,0-.1h0v-.09c-.08-.78-.09-2-.09-2-.28.16-1.68.93-1.69.52a52.21,52.21,0,0,1,.56-10.57.09.09,0,0,1,.19,0c.18,3.27-.22,6.54-.09,9.82a6.08,6.08,0,0,1,1.6-.62c.11,0,0,2.31,0,2.66a.13.13,0,0,0,0,0,4.81,4.81,0,0,0,3.5-1.38C562.32,269.08,562.41,269.15,562.35,269.23Z" transform="translate(-50.72 -43)"/><path class="cls-5" d="M559.35,270.66a4.12,4.12,0,0,0,1.74,1.15,1.85,1.85,0,0,0,1.13,0c.8-.27.76-1,.56-1.65a4.44,4.44,0,0,0-.44-.95A5.33,5.33,0,0,1,559.35,270.66Z" transform="translate(-50.72 -43)"/><path class="cls-32" d="M561.09,271.81a1.85,1.85,0,0,0,1.13,0c.8-.27.76-1,.56-1.65A1.91,1.91,0,0,0,561.09,271.81Z" transform="translate(-50.72 -43)"/><path class="cls-5" d="M561.36,263s.08,0,.09.08c.08,1,.33,2.15,1.28,2.39,0,0,0,.06,0,.06C561.59,265.47,561.27,263.95,561.36,263Z" transform="translate(-50.72 -43)"/><path class="cls-5" d="M562.15,261.83c1.61-.3,2.08,2.94.59,3.21S560.8,262.08,562.15,261.83Z" transform="translate(-50.72 -43)"/><path class="cls-5" d="M555.48,263.44s-.07.06-.06.1c.19,1,.23,2.17-.62,2.64,0,0,0,.06,0,.05C555.89,265.91,555.81,264.35,555.48,263.44Z" transform="translate(-50.72 -43)"/><path class="cls-5" d="M554.42,262.53c-1.63.13-1.26,3.37.25,3.26S555.79,262.43,554.42,262.53Z" transform="translate(-50.72 -43)"/><path class="cls-5" d="M575.76,265h0c-.82.11-2.24-2.61-2.71-2.63a2,2,0,0,1-1.4-.7A76.63,76.63,0,0,0,570,253.4a6,6,0,0,0-6.43-4.07c-2.66.52-3.93,3.14-5.83,3.13s-2.76-1.83-3.92-1.44-2,2.57-2.2,4.41c.25-3.47.91-6.31,2-7.54,4.9-5.67,15.87-5,19.82,1.95C575.07,252.66,575.94,259.3,575.76,265Z" transform="translate(-50.72 -43)"/><path class="cls-30" d="M573,262.38s2.32-5.4,4.7-4.66,1.32,8.08-1,9.53a2.61,2.61,0,0,1-3.71-.66Z" transform="translate(-50.72 -43)"/><path class="cls-5" d="M577.38,259.81s.06,0,0,.06c-1.61,1.08-2.2,2.9-2.5,4.73a1.44,1.44,0,0,1,2-.82c.05,0,0,.1,0,.1a1.6,1.6,0,0,0-1.62.91,7.76,7.76,0,0,0-.54,1.57c0,.17-.35.15-.33,0v0C573.92,264,575,260.53,577.38,259.81Z" transform="translate(-50.72 -43)"/><path class="cls-30" d="M364.1,410.32c.8,2.16,40,50.92,42.69,51.83,1,.35,8.44-4.95,17.25-11.6,1.9-1.44,3.85-2.93,5.83-4.46,12.84-9.92,26.23-20.75,26.23-20.75L430,392.64l-25.51,21.64-5.6,4.75s-23.37-11.95-26.4-12.64S363.3,408.15,364.1,410.32Z" transform="translate(-50.72 -43)"/><path class="cls-9" d="M364.1,410.32c.8,2.16,40,50.92,42.69,51.83,1.23.42,12-7.49,23.08-16.07l-25.42-31.79-5.6,4.75s-23.37-11.95-26.4-12.64S363.3,408.15,364.1,410.32Z" transform="translate(-50.72 -43)"/><path class="cls-13" d="M364.1,410.32c.8,2.16,40,50.92,42.69,51.83,1,.35,8.44-4.95,17.25-11.6L398.84,419s-23.37-11.95-26.4-12.64S363.3,408.15,364.1,410.32Z" transform="translate(-50.72 -43)"/><path class="cls-5" d="M366.61,409.45c6.78,8,33.35,41,39.44,49.4,0,.07,0,.1-.05,0-6.89-7.79-33.19-41-39.52-49.33C366.35,409.38,366.47,409.28,366.61,409.45Z" transform="translate(-50.72 -43)"/><path class="cls-5" d="M376.72,408.12a8.42,8.42,0,0,1,1.94,6.49,8.16,8.16,0,0,1-2.89,5.34s-.12-.05-.08-.1a9.74,9.74,0,0,0,.93-11.65A.07.07,0,0,1,376.72,408.12Z" transform="translate(-50.72 -43)"/><path class="cls-5" d="M395.48,416.52c2.68,3.23,4.57,8,3.53,12.14,0,.16-.27.1-.3,0A58,58,0,0,0,395,416.79.26.26,0,0,1,395.48,416.52Z" transform="translate(-50.72 -43)"/><path class="cls-5" d="M392.46,414.79c2.68,3.23,4.57,8,3.53,12.14,0,.16-.27.1-.3,0A58,58,0,0,0,392,415.05.26.26,0,0,1,392.46,414.79Z" transform="translate(-50.72 -43)"/><path class="cls-5" d="M389.45,413.05c2.68,3.23,4.57,8,3.53,12.14,0,.16-.27.1-.3,0A58,58,0,0,0,389,413.32.26.26,0,0,1,389.45,413.05Z" transform="translate(-50.72 -43)"/><path class="cls-5" d="M386.43,411.32c2.68,3.23,4.57,8,3.53,12.14,0,.16-.27.1-.3,0A58,58,0,0,0,386,411.59.26.26,0,0,1,386.43,411.32Z" transform="translate(-50.72 -43)"/><path class="cls-9" d="M412.14,450.52c2.94,3.68-2.77,8.26-5.72,4.57S409.19,446.83,412.14,450.52Z" transform="translate(-50.72 -43)"/><path class="cls-5" d="M396.78,410.08c-.86,3.6-.13,7.44.14,11.07a.51.51,0,0,0,.74.38.11.11,0,0,0,.18,0,22,22,0,0,0,6-9.7c.6-2.17.27-5.33-2.44-5.88S397.28,408,396.78,410.08Zm2.59-2.33c3.82-2.54,3.67,2.87,3.16,4.45a23.72,23.72,0,0,1-1.25,3,66,66,0,0,1-3.36,5.74c0-1.79-.19-3.56-.28-5.35C397.54,413.44,397.26,409.15,399.37,407.75Z" transform="translate(-50.72 -43)"/><path class="cls-5" d="M409.26,431.49c1.93-2,.43-4.78-1.29-6.24a22,22,0,0,0-10.39-4.68.11.11,0,0,0-.13.12.51.51,0,0,0-.4.72c1.82,3.15,3.37,6.74,6.1,9.23C404.75,432.11,407.43,433.35,409.26,431.49Zm-8.47-5.86c-.93-1.53-1.78-3.09-2.77-4.58a66,66,0,0,1,6,2.86,23.66,23.66,0,0,1,2.7,1.76c1.31,1,4.47,5.42-.12,5.46C404.08,431.15,401.9,427.45,400.79,425.63Z" transform="translate(-50.72 -43)"/><path class="cls-6" d="M405.81,409.36,433,446.06l91.8-63.7,8.85-6.15s2.51,1.69,6.28,3.77c5.24,2.9,12.92,6.57,19.72,7.57,11.4,1.69,30.43,1.51,40-11.34,8.09-10.82,3.7-24.93,3.7-24.93l-12.51-5.37s-29.61-24.67-48.8-25.42c-8.15-.32-20,5.85-31,12.3S405.81,409.36,405.81,409.36Z" transform="translate(-50.72 -43)"/><path class="cls-5" d="M533.67,376.21s2.51,1.69,6.28,3.77c6.67-8,20.79-22.49,21.22-23Z" transform="translate(-50.72 -43)"/><path class="cls-5" d="M580,337.66c1.77,1.23,3.48,2.54,5.23,3.8s3.49,2.41,5.12,3.76,3.23,2.85,4.8,4.33c.75.72,1.5,1.44,2.23,2.18a20.38,20.38,0,0,1,2.13,2.31c.06.08-.06.17-.13.12a24.22,24.22,0,0,1-2.37-1.93l-2.47-2.11c-1.59-1.35-3.21-2.67-4.8-4s-3-2.82-4.6-4.19-3.44-2.82-5.17-4.2C580,337.69,580,337.63,580,337.66Z" transform="translate(-50.72 -43)"/><path class="cls-5" d="M412.2,408c1.77,1.91,3.4,4,5,6s3.29,4,4.93,6.08c3.26,4.08,6.55,8.13,9.76,12.25,1.76,2.26,3.5,4.54,5.14,6.9.07.11-.09.22-.18.13-3.51-3.86-6.72-8-10-12s-6.51-8.17-9.71-12.3c-1.75-2.26-3.56-4.51-5.17-6.87C412,408.06,412.12,408,412.2,408Z" transform="translate(-50.72 -43)"/><path class="cls-5" d="M487.54,408.41c4.57-3.6,9.3-7,14-10.37s9.42-6.73,14.2-10c1.37-.94,2.76-1.85,4.14-2.77s2.82-1.77,4.17-2.72c.08-.06.15.08.07.13-1.24.89-2.42,1.89-3.64,2.81s-2.32,1.78-3.5,2.65c-2.29,1.7-4.61,3.36-6.92,5q-7,5.09-14.19,10c-2.71,1.86-5.41,3.72-8.18,5.49C487.58,408.8,487.38,408.54,487.54,408.41Z" transform="translate(-50.72 -43)"/><path class="cls-5" d="M458.18,370.54c4.22-3.5,8.75-6.64,13.17-9.88s8.93-6.57,13.42-9.82l13.37-9.67c4.32-3.12,8.62-6.3,13.18-9.06,2.5-1.51,5.06-2.92,7.69-4.18a50.31,50.31,0,0,1,7.95-3.25.07.07,0,0,1,.05.14c-2.25,1.26-4.61,2.31-6.89,3.53s-4.47,2.46-6.65,3.78c-4.53,2.75-8.81,5.87-13.1,9-8.92,6.42-17.83,12.86-26.82,19.19-5,3.54-10,7.28-15.18,10.53C458.22,370.92,458,370.67,458.18,370.54Z" transform="translate(-50.72 -43)"/></g><g id="Cloud"><path class="cls-13" d="M461.43,221.86a13.89,13.89,0,0,0,12.85,13.85v0h78.65a16.32,16.32,0,0,0,1.53-32.57,27.5,27.5,0,0,0-53.3-8.6,16.12,16.12,0,0,0-7.3-1.73,16.32,16.32,0,0,0-16.29,15.31,13.62,13.62,0,0,0-2.26-.18A13.89,13.89,0,0,0,461.43,221.86Z" transform="translate(-50.72 -43)"/><rect class="cls-9" x="458.15" y="175.55" width="20.03" height="17.2"/><polygon class="cls-9" points="451.27 175.54 485.06 175.54 468.16 158.69 451.27 175.54"/></g></svg>